<?xml version="1.0" encoding="utf-8"?>
<!-- Generator: Adobe Illustrator 18.0.0, SVG Export Plug-In . SVG Version: 6.00 Build 0)  -->
<!DOCTYPE svg PUBLIC "-//W3C//DTD SVG 1.1//EN" "http://www.w3.org/Graphics/SVG/1.1/DTD/svg11.dtd">
<svg version="1.1" id="Layer_1" xmlns="http://www.w3.org/2000/svg" xmlns:xlink="http://www.w3.org/1999/xlink" x="0px" y="0px"
	 viewBox="360 0 963.8 1190.6" enable-background="new 360 0 963.8 1190.6" xml:space="preserve">
<g>
	<path d="M1139.5,0H360v1190.6h963.8V184.3L1139.5,0L1139.5,0z M1125.4,70.9l127.6,127.6h-127.6V70.9L1125.4,70.9z M416.7,1133.9
		V56.7h652v198.4h198.4v878.7H416.7L416.7,1133.9z"/>
	<polygon points="785.2,198.4 530.1,198.4 530.1,255.1 785.2,255.1 	"/>
	<polygon points="530.1,935.4 1040.3,935.4 1040.3,878.7 530.1,878.7 	"/>
	<polygon points="530.1,425.2 1153.7,425.2 1153.7,368.5 530.1,368.5 	"/>
	<polygon points="1097,538.6 530.1,538.6 530.1,595.3 1097,595.3 	"/>
	<polygon points="530.1,765.4 1153.7,765.4 1153.7,708.7 530.1,708.7 	"/>
</g>
</svg>
