<svg id="Layer_1" data-name="Layer 1" xmlns="http://www.w3.org/2000/svg" width="42" height="32" viewBox="0 0 42 32"><title>network</title><path d="M42,17V15H25V7.75A3.77,3.77,0,0,0,28,4a4,4,0,0,0-8,0,3.77,3.77,0,0,0,3,3.75V15H7.75A3.77,3.77,0,0,0,4,12a4,4,0,0,0,0,8,3.77,3.77,0,0,0,3.75-3H13v7.25A3.77,3.77,0,0,0,10,28a4,4,0,0,0,8,0,3.77,3.77,0,0,0-3-3.75V17H33v7.25A3.77,3.77,0,0,0,30,28a4,4,0,0,0,8,0,3.77,3.77,0,0,0-3-3.75V17h7ZM22,4a2.15,2.15,0,0,1,2-2,2.15,2.15,0,0,1,2,2,2.15,2.15,0,0,1-2,2,2.15,2.15,0,0,1-2-2h0ZM4,18a2.15,2.15,0,0,1-2-2,2.15,2.15,0,0,1,2-2,2.15,2.15,0,0,1,2,2,2.15,2.15,0,0,1-2,2H4ZM16,28a2.15,2.15,0,0,1-2,2,2.15,2.15,0,0,1-2-2,2.15,2.15,0,0,1,2-2,2.15,2.15,0,0,1,2,2h0Zm20,0a2,2,0,0,1-4,0,2,2,0,0,1,4,0h0Z"/></svg>