<svg id="Layer_1" data-name="Layer 1" xmlns="http://www.w3.org/2000/svg" width="32" height="42" viewBox="0 0 32 42"><title>Person</title><path d="M16,16a7.9,7.9,0,0,0,8-8,7.9,7.9,0,0,0-8-8A7.9,7.9,0,0,0,8,8a7.9,7.9,0,0,0,8,8h0ZM16,2a6.08,6.08,0,0,1,6,6,6.08,6.08,0,0,1-6,6,6.08,6.08,0,0,1-6-6,6.08,6.08,0,0,1,6-6h0Z"/><path d="M16,18A16.11,16.11,0,0,0,0,34v8H2V34A14.31,14.31,0,0,1,16,20,14.31,14.31,0,0,1,30,34v8h2V34A16.11,16.11,0,0,0,16,18h0Z"/><polygon points="7 42 9 42 9 32 7 32 7 42 7 42"/><polygon points="23 42 25 42 25 32 23 32 23 42 23 42"/></svg>