<svg id="Layer_1" data-name="Layer 1" xmlns="http://www.w3.org/2000/svg" width="32" height="42" viewBox="0 0 32 42"><defs><style>.cls-1{fill:#614767;}</style></defs><title>person-purple</title><path class="cls-1" d="M16,16a7.9,7.9,0,0,0,8-7.8q0-.1,0-0.2a7.9,7.9,0,0,0-7.8-8H16A7.9,7.9,0,0,0,8,7.8Q8,7.9,8,8a7.9,7.9,0,0,0,7.8,8H16ZM16,2a6.08,6.08,0,0,1,6,6A6,6,0,0,1,10,8a6.08,6.08,0,0,1,6-6h0Z" transform="translate(0 0)"/><path class="cls-1" d="M16,18A16.11,16.11,0,0,0,0,34v8H2V34A14.31,14.31,0,0,1,16,20,14.31,14.31,0,0,1,30,34v8h2V34A16.11,16.11,0,0,0,16,18h0Z" transform="translate(0 0)"/><polygon class="cls-1" points="7 42 9 42 9 32 7 32 7 42 7 42"/><polygon class="cls-1" points="23 42 25 42 25 32 23 32 23 42 23 42"/></svg>