<?xml version="1.0" encoding="utf-8"?>
<!-- Generator: Adobe Illustrator 19.2.1, SVG Export Plug-In . SVG Version: 6.00 Build 0)  -->
<svg version="1.1" id="Layer_1" xmlns="http://www.w3.org/2000/svg" xmlns:xlink="http://www.w3.org/1999/xlink" x="0px" y="0px"
	 viewBox="0 0 28 42" style="enable-background:new 0 0 28 42;" xml:space="preserve">
<style type="text/css">
	.st0{fill:#353535;}
</style>
<title>server-orange</title>
<path class="st0" d="M0,0v42h28V0H0z M26,40H2V2h24V40L26,40z"/>
<polygon class="st0" points="23,6 5,6 5,8 23,8 23,6 "/>
<polygon class="st0" points="23,11 5,11 5,13 23,13 23,11 "/>
<polygon class="st0" points="23,16 5,16 5,18 23,18 23,16 "/>
<path class="st0" d="M11,37h6v-6h-6V37L11,37z M13,33h2v2h-2V33L13,33z"/>
</svg>
