<svg id="Layer_1" data-name="Layer 1" xmlns="http://www.w3.org/2000/svg" width="28" height="42" viewBox="0 0 28 42"><defs><style>.cls-1{fill:#2ad2c9;}</style></defs><title>server-turquoise</title><path class="cls-1" d="M0,0V42H28V0H0ZM26,40H2V2H26V40h0Z"/><polygon class="cls-1" points="23 6 5 6 5 8 23 8 23 6 23 6"/><polygon class="cls-1" points="23 11 5 11 5 13 23 13 23 11 23 11"/><polygon class="cls-1" points="23 16 5 16 5 18 23 18 23 16 23 16"/><path class="cls-1" d="M11,37h6V31H11v6h0Zm2-4h2v2H13V33h0Z"/></svg>