<?xml version="1.0" encoding="utf-8"?>
<!-- Generator: Adobe Illustrator 18.0.0, SVG Export Plug-In . SVG Version: 6.00 Build 0)  -->
<!DOCTYPE svg PUBLIC "-//W3C//DTD SVG 1.1//EN" "http://www.w3.org/Graphics/SVG/1.1/DTD/svg11.dtd">
<svg version="1.1" id="Layer_1" xmlns="http://www.w3.org/2000/svg" xmlns:xlink="http://www.w3.org/1999/xlink" x="0px" y="0px"
	 viewBox="0 0 42 42" enable-background="new 0 0 42 42" xml:space="preserve">
<g>
	<path d="M21,0C9.5,0,0,9.5,0,21s9.5,21,21,21s21-9.5,21-21S32.5,0,21,0L21,0z M2,21C2,10.5,10.5,2,21,2c5,0,9.3,1.8,12.8,5
		C7,33.8,7,33.8,7,33.8C3.8,30.3,2,26,2,21L2,21z M21,40c-5,0-9.3-1.8-12.8-5C35,8.3,35,8.3,35,8.3c3.3,3.5,5,7.8,5,12.8
		C40,31.5,31.5,40,21,40L21,40z"/>
</g>
</svg>
